<svg xmlns="http://www.w3.org/2000/svg"><symbol id="console" viewBox="0 0 24 24" fill="none" stroke="currentColor" stroke-width="1.75" stroke-linecap="round" stroke-linejoin="round"><rect x="3" y="4" width="18" height="16" rx="3"/><path d="m7 9 3 3-3 3m6 0h4"/></symbol><symbol id="chart" viewBox="0 0 24 24" fill="none" stroke="currentColor" stroke-width="1.75" stroke-linecap="round" stroke-linejoin="round"><path d="M4 3v17h17M8 15v-4m5 4V7m5 8V4"/></symbol><symbol id="profiles" viewBox="0 0 24 24" fill="none" stroke="currentColor" stroke-width="1.75" stroke-linecap="round" stroke-linejoin="round"><circle cx="9" cy="8" r="3"/><path d="M3 21v-3a6 6 0 0 1 12 0v3m1-16a3 3 0 0 1 0 6m3 10v-3a5 5 0 0 0-2-4"/></symbol><symbol id="user" viewBox="0 0 24 24" fill="none" stroke="currentColor" stroke-width="1.75" stroke-linecap="round" stroke-linejoin="round"><circle cx="12" cy="8" r="4"/><path d="M4 21v-2a8 8 0 0 1 16 0v2"/></symbol><symbol id="settings" viewBox="0 0 24 24" fill="none" stroke="currentColor" stroke-width="1.75" stroke-linecap="round" stroke-linejoin="round"><circle cx="12" cy="12" r="4"/><path d="M12 2v3m0 14v3M2 12h3m14 0h3M5 5l2 2m10 10 2 2M5 19l2-2M17 7l2-2"/><circle cx="12" cy="12" r="8"/></symbol><symbol id="tools" viewBox="0 0 24 24" fill="none" stroke="currentColor" stroke-width="1.75" stroke-linecap="round" stroke-linejoin="round"><path d="M14 4a6 6 0 0 0-7 8L3 16a3 3 0 0 0 5 5l5-5a6 6 0 0 0 7-8l-4 4-4-4z"/></symbol><symbol id="activity" viewBox="0 0 24 24" fill="none" stroke="currentColor" stroke-width="1.75" stroke-linecap="round" stroke-linejoin="round"><path d="M2 12h5l3-9 4 18 3-9h5"/></symbol><symbol id="refresh" viewBox="0 0 24 24" fill="none" stroke="currentColor" stroke-width="1.75" stroke-linecap="round" stroke-linejoin="round"><path d="M20 9a8 8 0 0 0-14-4L3 8m0-5v5h5M4 15a8 8 0 0 0 14 4l3-3m0 5v-5h-5"/></symbol><symbol id="play" viewBox="0 0 24 24" fill="none" stroke="currentColor" stroke-width="1.75" stroke-linecap="round" stroke-linejoin="round"><path d="m7 3 14 9-14 9z"/></symbol><symbol id="stop" viewBox="0 0 24 24" fill="none" stroke="currentColor" stroke-width="1.75" stroke-linecap="round" stroke-linejoin="round"><rect x="5" y="5" width="14" height="14" rx="2"/></symbol><symbol id="pause" viewBox="0 0 24 24" fill="none" stroke="currentColor" stroke-width="1.75" stroke-linecap="round" stroke-linejoin="round"><path d="M8 4v16M16 4v16"/></symbol><symbol id="save" viewBox="0 0 24 24" fill="none" stroke="currentColor" stroke-width="1.75" stroke-linecap="round" stroke-linejoin="round"><path d="M4 3h13l4 4v13a1 1 0 0 1-1 1H4a1 1 0 0 1-1-1V4a1 1 0 0 1 1-1Z"/><path d="M7 3v6h9V3M7 21v-8h10v8"/></symbol><symbol id="capture" viewBox="0 0 24 24" fill="none" stroke="currentColor" stroke-width="1.75" stroke-linecap="round" stroke-linejoin="round"><rect x="2" y="3" width="20" height="14" rx="2"/><path d="M8 21h8m-4-4v4"/></symbol><symbol id="crosshair" viewBox="0 0 24 24" fill="none" stroke="currentColor" stroke-width="1.75" stroke-linecap="round" stroke-linejoin="round"><circle cx="12" cy="12" r="8"/><circle cx="12" cy="12" r="2"/><path d="M12 1v5m0 12v5M1 12h5m12 0h5"/></symbol><symbol id="export" viewBox="0 0 24 24" fill="none" stroke="currentColor" stroke-width="1.75" stroke-linecap="round" stroke-linejoin="round"><path d="M14 3H5v18h14V10M10 14 21 3m-6 0h6v6"/></symbol><symbol id="file" viewBox="0 0 24 24" fill="none" stroke="currentColor" stroke-width="1.75" stroke-linecap="round" stroke-linejoin="round"><path d="M14 2H5v20h14V7zm0 0v5h5M8 12h8M8 16h6"/></symbol><symbol id="chevron-down" viewBox="0 0 24 24" fill="none" stroke="currentColor" stroke-width="1.75" stroke-linecap="round" stroke-linejoin="round"><path d="m5 9 7 7 7-7"/></symbol><symbol id="chevron-right" viewBox="0 0 24 24" fill="none" stroke="currentColor" stroke-width="1.75" stroke-linecap="round" stroke-linejoin="round"><path d="m9 5 7 7-7 7"/></symbol><symbol id="check" viewBox="0 0 24 24" fill="none" stroke="currentColor" stroke-width="1.75" stroke-linecap="round" stroke-linejoin="round"><path d="m4 12 5 5L20 6"/></symbol><symbol id="close" viewBox="0 0 24 24" fill="none" stroke="currentColor" stroke-width="1.75" stroke-linecap="round" stroke-linejoin="round"><path d="m6 6 12 12M6 18 18 6"/></symbol><symbol id="info" viewBox="0 0 24 24" fill="none" stroke="currentColor" stroke-width="1.75" stroke-linecap="round" stroke-linejoin="round"><circle cx="12" cy="12" r="9"/><path d="M12 11v6m0-10v.1"/></symbol><symbol id="warning" viewBox="0 0 24 24" fill="none" stroke="currentColor" stroke-width="1.75" stroke-linecap="round" stroke-linejoin="round"><path d="m12 3 10 18H2zM12 9v5m0 3v.1"/></symbol><symbol id="error" viewBox="0 0 24 24" fill="none" stroke="currentColor" stroke-width="1.75" stroke-linecap="round" stroke-linejoin="round"><circle cx="12" cy="12" r="9"/><path d="m8 8 8 8m-8 0 8-8"/></symbol><symbol id="wall" viewBox="0 0 24 24" fill="none" stroke="currentColor" stroke-width="1.75" stroke-linecap="round" stroke-linejoin="round"><path d="M3 3v5h5V3h3v5h5V3h5v18H3zM3 14h18M8 14v7m8-7v7M12 8v6"/></symbol><symbol id="search" viewBox="0 0 24 24" fill="none" stroke="currentColor" stroke-width="1.75" stroke-linecap="round" stroke-linejoin="round"><circle cx="10" cy="10" r="6"/><path d="m15 15 6 6"/></symbol><symbol id="copy" viewBox="0 0 24 24" fill="none" stroke="currentColor" stroke-width="1.75" stroke-linecap="round" stroke-linejoin="round"><rect x="8" y="8" width="13" height="13" rx="2"/><path d="M5 16H3V3h13v2"/></symbol><symbol id="clock" viewBox="0 0 24 24" fill="none" stroke="currentColor" stroke-width="1.75" stroke-linecap="round" stroke-linejoin="round"><circle cx="12" cy="12" r="9"/><path d="M12 6v6l4 2"/></symbol><symbol id="folder" viewBox="0 0 24 24" fill="none" stroke="currentColor" stroke-width="1.75" stroke-linecap="round" stroke-linejoin="round"><path d="M2 6V4h7l3 3h10v13H2z"/></symbol><symbol id="shield" viewBox="0 0 24 24" fill="none" stroke="currentColor" stroke-width="1.75" stroke-linecap="round" stroke-linejoin="round"><path d="m12 2 9 4v6c0 5-6 9-9 10-3-1-9-5-9-10V6z"/></symbol><symbol id="zoom" viewBox="0 0 24 24" fill="none" stroke="currentColor" stroke-width="1.75" stroke-linecap="round" stroke-linejoin="round"><circle cx="10" cy="10" r="6"/><path d="M7 10h6m-3-3v6m5 2 6 6"/></symbol></svg>
